<?xml version="1.0" encoding="UTF-8"?>
<svg width="437px" height="472px" viewBox="0 0 437 472" version="1.1" xmlns="http://www.w3.org/2000/svg" xmlns:xlink="http://www.w3.org/1999/xlink">
    <!-- Generator: Sketch 41 (35326) - http://www.bohemiancoding.com/sketch -->
    <title>Untitled</title>
    <desc>Created with Sketch.</desc>
    <defs></defs>
    <g id="Page-1" stroke="none" stroke-width="1" fill="none" fill-rule="evenodd">
        <g id="logout" transform="translate(218.500000, 236.000000) scale(-1, 1) translate(-218.500000, -236.000000) " fill="#000000">
            <g id="Group">
                <path d="M210.619,444.2 L87.719,444.2 C54.319,444.2 27.219,417 27.219,383.7 L27.219,87.5 C27.219,54.1 54.419,27 87.719,27 L212.619,27 C220.119,27 226.119,21 226.119,13.5 C226.119,6 220.119,0 212.619,0 L87.719,0 C39.419,0 0.219,39.3 0.219,87.5 L0.219,383.7 C0.219,432 39.519,471.2 87.719,471.2 L210.619,471.2 C218.119,471.2 224.119,465.2 224.119,457.7 C224.119,450.2 218.019,444.2 210.619,444.2 Z" id="Shape"></path>
                <path d="M433.019,226.1 L347.219,140.3 C341.919,135 333.419,135 328.119,140.3 C322.819,145.6 322.819,154.1 328.119,159.4 L390.919,222.2 L117.019,222.2 C109.519,222.2 103.519,228.2 103.519,235.7 C103.519,243.2 109.519,249.2 117.019,249.2 L390.919,249.2 L328.119,312 C322.819,317.3 322.819,325.8 328.119,331.1 C330.719,333.7 334.219,335.1 337.619,335.1 C341.019,335.1 344.519,333.8 347.119,331.1 L432.919,245.3 C438.319,239.9 438.319,231.3 433.019,226.1 Z" id="Shape" transform="translate(270.250294, 235.712500) scale(-1, 1) translate(-270.250294, -235.712500) "></path>
            </g>
        </g>
    </g>
</svg>