<?xml version="1.0" encoding="UTF-8"?>
<svg width="512px" height="354px" viewBox="0 0 512 354" version="1.1" xmlns="http://www.w3.org/2000/svg" xmlns:xlink="http://www.w3.org/1999/xlink">
    <!-- Generator: Sketch 41 (35326) - http://www.bohemiancoding.com/sketch -->
    <title>mastercard2</title>
    <desc>Created with Sketch.</desc>
    <defs></defs>
    <g id="Page-1" stroke="none" stroke-width="1" fill="none" fill-rule="evenodd">
        <g id="mastercard2">
            <g id="Page-1">
                <g id="mastercard">
                    <path d="M481.735,353.548 L30.265,353.548 C13.55,353.549 0,339.997 0,323.281 L0,30.717 C0,14.002 13.55,0.451 30.265,0.451 L481.735,0.451 C498.451,0.451 512,14.002 512,30.717 L512,323.281 C512,339.997 498.45,353.548 481.735,353.548 Z" id="Shape" fill="#3C80AD"></path>
                    <path d="M401.9052,183.169361 C401.914029,233.699367 362.801125,274.677867 314.512757,274.687089 C266.245257,274.705534 227.101854,233.743801 227.087407,183.216309 L227.087407,183.169361 C227.072157,132.636001 266.197903,91.6575009 314.474232,91.6449254 C362.74735,91.6264813 401.893964,132.585699 401.906003,183.121574 C401.9052,183.122412 401.9052,183.150917 401.9052,183.169361 Z" id="Shape" fill="#F7981D"></path>
                    <path d="M196.758288,91.6457575 C148.764479,91.9685285 109.906003,132.833849 109.906003,183.147557 C109.906003,233.659119 149.064656,274.649357 197.319314,274.649357 C219.954587,274.649357 240.598578,265.611769 256.130732,250.805384 L256.127522,250.796162 L256.139561,250.796162 C259.325932,247.765469 262.293189,244.494164 265.017256,240.9965 L247.11258,240.9965 C244.71919,237.981735 242.544913,234.831994 240.59296,231.579133 L271.475074,231.579133 C273.361213,228.432745 275.054725,225.158086 276.571663,221.779471 L235.500385,221.779471 C234.098221,218.633082 232.881461,215.430524 231.845288,212.170956 L280.226759,212.170956 C283.149071,203.041987 284.725401,193.283404 284.725401,183.147557 C284.725401,176.41883 284.025523,169.865322 282.713252,163.550748 L229.277731,163.550748 C229.944702,160.30124 230.776209,157.085268 231.767435,153.942233 L280.172984,153.942233 C279.091865,150.5829 277.833369,147.316625 276.403917,144.139217 L235.494766,144.139217 C236.969165,140.84863 238.641809,137.633496 240.50708,134.530703 L271.370735,134.530703 C269.313639,131.105138 267.043049,127.832995 264.589463,124.733555 L247.381455,124.733555 C250.045325,121.455544 252.970045,118.365326 256.144376,115.495599 C240.617841,100.682507 219.971441,91.6449191 197.324129,91.6449191 C197.127489,91.6457575 196.941283,91.6457575 196.758288,91.6457575 Z" id="Shape" fill="#CB2026"></path>
                    <g id="Group" transform="translate(117.932126, 159.552579)" fill="#FFFFFF">
                        <path d="M111.047034,47.0516249 L112.215637,38.7727589 C111.579166,38.7727589 110.641714,39.0552883 109.815826,39.0552883 C106.578088,39.0552883 106.217715,37.2544778 106.428,35.9214756 L109.043713,19.0225286 L113.966135,19.0225286 L115.155606,9.85918624 L110.515704,9.85918624 L111.461984,4.16835663 L102.152484,4.16835663 C101.951028,4.38130164 96.6569972,36.2065201 96.6569972,40.0739032 C96.6569972,45.8116814 99.7293972,48.3678598 104.07153,48.3301334 C107.464172,48.2974371 110.116003,47.3157103 111.047034,47.0516249 Z" id="Shape"></path>
                        <path d="M113.999042,31.2635131 C113.999042,45.0320008 122.675281,48.3066591 130.072156,48.3066591 C136.901584,48.3066591 139.901749,46.703703 139.901749,46.703703 L141.544697,37.3056181 C141.544697,37.3056181 136.352598,39.7150825 131.661329,39.7150825 C121.669608,39.7150825 123.420908,31.9107318 123.420908,31.9107318 L142.337678,31.9107318 C142.337678,31.9107318 143.553635,25.5928043 143.553635,23.0206968 C143.553635,16.6055189 140.496485,8.7818857 130.282441,8.7818857 C120.921573,8.7844008 113.999042,19.3335624 113.999042,31.2635131 Z M130.321769,17.5017323 C135.571656,17.5017323 134.601298,23.6813294 134.601298,24.1801573 L124.270072,24.1801573 C124.266861,23.5438373 125.24364,17.5017323 130.321769,17.5017323 Z" id="Shape"></path>
                        <path d="M189.250368,47.0516249 L190.917394,36.4203035 C190.917394,36.4203035 186.349727,38.8297678 183.217131,38.8297678 C176.616448,38.8297678 173.970235,33.5405156 173.970235,27.8815439 C173.970235,16.3749682 179.64952,10.0444652 185.977315,10.0444652 C190.716741,10.0444652 194.524334,12.8362245 194.524334,12.8362245 L196.041271,2.52180546 C196.041271,2.52180546 190.398104,0.12491656 185.563167,0.12491656 C174.817793,0.12491656 164.360557,9.87176173 164.360557,28.2101835 C164.360557,40.3505641 170.009343,48.3837888 181.11509,48.3837888 C184.252501,48.3854655 189.250368,47.0516249 189.250368,47.0516249 Z" id="Shape"></path>
                        <path d="M59.8612351,8.93195325 C53.4796645,8.93195325 48.5869398,11.0748172 48.5869398,11.0748172 L47.2385511,19.4693777 C47.2385511,19.4693777 51.2805067,17.7565956 57.3803604,17.7565956 C60.8460404,17.7565956 63.3774797,18.1615265 63.3774797,21.1134138 C63.3774797,22.9016489 63.068474,23.5631198 63.068474,23.5631198 C63.068474,23.5631198 60.3387894,23.3216703 59.0714646,23.3216703 C51.0260786,23.3216703 42.5689525,26.9165845 42.5689525,37.7642044 C42.5689525,46.3029639 48.1125959,48.2664175 51.5517897,48.2664175 C58.1195664,48.2664175 60.9423539,43.8088246 61.0988633,43.7895421 L60.7922654,47.5160798 L68.985332,47.5160798 L72.6428364,20.6791401 C72.6428364,9.29831927 63.1551561,8.93195325 59.8612351,8.93195325 Z M61.8581346,30.7713922 C62.0355119,32.4120748 60.8733293,40.0973775 55.26949,40.0973775 C52.3800856,40.0973775 51.6264326,37.7826485 51.6264326,36.4144349 C51.6264326,33.7509455 53.0109389,30.5483867 59.8339463,30.5483867 C61.4166978,30.5483867 61.5876542,30.7303122 61.8581346,30.7713922 Z" id="Shape"></path>
                        <path d="M81.3543906,48.0618562 C83.4476035,48.0618562 95.4306056,48.6235615 95.4306056,35.6800261 C95.4306056,23.577372 84.3401084,25.9650389 84.3401084,21.102515 C84.3401084,18.6905355 86.148394,17.9184003 89.4511437,17.9184003 C90.7634149,17.9184003 95.8118464,18.3610576 95.8118464,18.3610576 L96.9892787,9.7535521 C96.9892787,9.7535521 93.7218439,8.99399234 88.4061425,8.99399234 C81.5141104,8.99399234 74.5313832,11.8612047 74.5313832,21.7078154 C74.5313832,32.8723378 86.183709,31.7430586 86.183709,36.442101 C86.183709,39.5792672 82.9251029,39.8366456 80.4145316,39.8366456 C76.0780172,39.8366456 72.1709004,38.2772845 72.1524403,38.349384 L70.9124042,46.8596391 C71.1291096,46.9392839 73.5433674,48.0618562 81.3543906,48.0618562 Z" id="Shape"></path>
                        <path d="M266.338874,1.21143913 L264.335554,14.2488715 C264.335554,14.2488715 260.830546,9.18933166 255.350309,9.18933166 C246.81854,9.18933166 239.713013,19.9489232 239.713013,32.3181777 C239.713013,40.3019388 243.499738,48.11635 251.254578,48.11635 C256.831129,48.11635 259.915568,44.0477589 259.915568,44.0477589 L259.510249,47.5202716 L268.56211,47.5202716 L275.676466,1.19047997 L266.338874,1.21143913 Z M262.020017,26.6432771 C262.020017,31.7849769 259.581681,38.6511958 254.538868,38.6511958 C251.187159,38.6511958 249.622867,35.7085306 249.622867,31.0908097 C249.622867,23.542999 252.860605,18.5488517 256.944297,18.5488517 C260.299217,18.54969 262.020017,20.965023 262.020017,26.6432771 Z" id="Shape"></path>
                        <polygon id="Shape" points="9.46440455 47.5605132 15.1372685 12.5830379 15.9631566 47.5605132 22.3776343 47.5605132 34.3389658 12.5830379 29.038514 47.5605132 38.5647197 47.5605132 45.9078198 1.18041958 31.1718575 1.18041958 21.997196 29.6328909 21.5196417 1.18041958 7.94184897 1.18041958 0.49681703 47.5605132"></polygon>
                        <path d="M152.860728,47.6259058 C155.569545,31.5049626 156.071177,18.4080061 162.540233,20.795673 C163.672719,14.559067 164.762666,12.1470875 165.993873,9.50288061 C165.993873,9.50288061 165.417598,9.37461059 164.197627,9.37461059 C160.03849,9.37461059 156.94763,15.3345557 156.94763,15.3345557 L157.770308,9.86337807 L149.102897,9.86337807 L143.304023,47.6259058 L152.860728,47.6259058 Z" id="Shape"></path>
                        <path d="M210.722656,8.93195325 C204.341085,8.93195325 199.451571,11.0748172 199.451571,11.0748172 L198.106393,19.4693777 C198.106393,19.4693777 202.13952,17.7565956 208.244991,17.7565956 C211.707461,17.7565956 214.245321,18.1615265 214.245321,21.1134138 C214.245321,22.9016489 213.933105,23.5631198 213.933105,23.5631198 C213.933105,23.5631198 211.203421,23.3216703 209.926464,23.3216703 C201.877868,23.3216703 193.430373,26.9165845 193.430373,37.7642044 C193.430373,46.3029639 198.977227,48.2664175 202.41321,48.2664175 C208.980987,48.2664175 211.806985,43.8088246 211.957073,43.7895421 L211.653686,47.5160798 L219.852371,47.5160798 L223.507467,20.6791401 C223.510678,9.29831927 214.026208,8.93195325 210.722656,8.93195325 Z M212.722766,30.7713922 C212.900143,32.4120748 211.743579,40.0973775 206.130911,40.0973775 C203.244717,40.0973775 202.496682,37.7826485 202.496682,36.4144349 C202.496682,33.7509455 203.881188,30.5483867 210.692156,30.5483867 C212.284539,30.5483867 212.449877,30.7303122 212.722766,30.7713922 Z" id="Shape"></path>
                        <path d="M230.991025,47.6259058 C233.703052,31.5049626 234.204685,18.4080061 240.672937,20.795673 C241.805423,14.559067 242.895371,12.1470875 244.132999,9.50288061 C244.132999,9.50288061 243.547092,9.37461059 242.334345,9.37461059 C238.163169,9.37461059 235.08194,15.3345557 235.08194,15.3345557 L235.911038,9.86337807 L227.23801,9.86337807 L221.435925,47.6233907 L230.991827,47.6233907 L230.991827,47.6259058 L230.991025,47.6259058 Z" id="Shape"></path>
                    </g>
                    <path d="M21.517,323.281 L21.517,30.717 C21.517,14.002 35.069,0.451 51.784,0.451 L30.264,0.451 C13.55,0.451 0,14.001 0,30.717 L0,201.772204 L0,323.282 C0,339.998 13.55,353.549 30.265,353.549 L51.785,353.549 C35.07,353.549 21.517,339.997 21.517,323.281 Z" id="Shape" fill="#3A4B5F" opacity="0.25"></path>
                </g>
            </g>
        </g>
    </g>
</svg>