<?xml version="1.0" encoding="UTF-8"?>
<svg width="85px" height="90px" viewBox="0 0 85 90" version="1.1" xmlns="http://www.w3.org/2000/svg" xmlns:xlink="http://www.w3.org/1999/xlink">
    <!-- Generator: Sketch 41 (35326) - http://www.bohemiancoding.com/sketch -->
    <title>user-male-outlined-symbol</title>
    <desc>Created with Sketch.</desc>
    <defs></defs>
    <g id="Page-1" stroke="none" stroke-width="1" fill="none" fill-rule="evenodd">
        <g id="user-male-outlined-symbol">
            <g id="Capa_1" fill="#000000">
                <g id="_x31__x5F_5">
                    <path d="M39.971,57.971 C52.95,57.971 63.471,44.993 63.471,28.985 C63.471,12.977 52.949,0 39.971,0 C26.992,0 16.47,12.977 16.47,28.985 C16.47,44.993 26.993,57.971 39.971,57.971 Z M39.971,5.264 C50.032,5.264 58.215,15.906 58.215,28.985 C58.215,42.067 50.03,52.708 39.971,52.708 C29.911,52.708 21.726,42.066 21.726,28.985 C21.726,15.906 29.911,5.264 39.971,5.264 Z M74.444,63.266 L56.643,56.758 C55.277,56.268 53.773,56.977 53.283,58.348 C52.793,59.714 53.502,61.221 54.869,61.712 L72.67,68.219 C74.348,68.823 75.877,70.997 75.877,72.783 L75.877,74.675 C75.877,76.127 74.696,76.43 73.248,76.43 L8.444,76.43 C6.996,76.43 5.816,76.126 5.816,74.675 L5.816,72.783 C5.816,70.997 7.345,68.822 9.023,68.218 L25.072,61.712 C26.439,61.22 27.148,59.713 26.656,58.348 C26.166,56.977 24.659,56.266 23.297,56.758 L7.249,63.266 C3.5,64.612 0.563,68.793 0.563,72.784 L0.563,74.676 C0.563,79.03 4.099,81.695 8.445,81.695 L73.249,81.695 C77.598,81.695 81.132,79.031 81.132,74.676 L81.132,72.784 C81.129,68.793 78.193,64.611 74.444,63.266 Z" id="Shape"></path>
                </g>
            </g>
            <circle id="Oval" fill="#FFFFFF" cx="66" cy="71" r="19"></circle>
            <path d="M78,69 L68,69 L68,59 C68,57.894 67.104,57 66,57 C64.896,57 64,57.894 64,59 L64,69 L54,69 C52.896,69 52,69.894 52,71 C52,72.106 52.896,73 54,73 L64,73 L64,83 C64,84.106 64.896,85 66,85 C67.104,85 68,84.106 68,83 L68,73 L78,73 C79.104,73 80,72.106 80,71 C80,69.894 79.104,69 78,69 Z" id="Shape" stroke="#000000" fill="#000000"></path>
        </g>
    </g>
</svg>